<?xml version="1.0" encoding="UTF-8"?>
<svg id="Layer_1" data-name="Layer 1" xmlns="http://www.w3.org/2000/svg" viewBox="0 0 213.36 162.53">
  <defs>
    <style>
      .cls-1 {
        fill: #40930d;
      }

      .cls-2 {
        fill: #ffe60f;
      }

      .cls-3 {
        fill: none;
        stroke: #231f20;
        stroke-miterlimit: 10;
        stroke-width: 1.12px;
      }
    </style>
  </defs>
  <g>
    <path class="cls-1" d="M118.38,7.27h-24.2L21.58,132.26l12.08,23h146.8l11.32-24.6L118.38,7.27ZM84.09,106.66l20.93-38.67,23.48,38.67h-44.41Z"/>
    <polygon class="cls-2" points="191.78 130.66 180.46 155.26 33.66 155.26 94.18 50.13 105.02 67.99 84.09 106.66 70.98 130.86 191.78 130.66"/>
  </g>
  <g>
    <path class="cls-3" d="M118.38,7.27h-24.2L21.58,132.26l12.08,23h146.8l11.32-24.6L118.38,7.27ZM84.09,106.66l20.93-38.67,23.48,38.67h-44.41Z"/>
    <polyline class="cls-3" points="94.18 7.27 152.71 106.66 128.51 106.66 105.02 67.99 94.18 50.13 33.66 155.26"/>
    <polyline class="cls-3" points="105.02 67.99 84.09 106.66 70.98 130.86 191.78 130.66"/>
    <line class="cls-3" x1="128.51" y1="106.66" x2="84.09" y2="106.66"/>
  </g>
</svg>